<?xml version="1.0" encoding="UTF-8"?>
<svg version="1.1" xmlns="http://www.w3.org/2000/svg" width="444" height="470">
<path d="M0 0 C146.52 0 293.04 0 444 0 C444 155.1 444 310.2 444 470 C297.48 470 150.96 470 0 470 C0 314.9 0 159.8 0 0 Z " fill="#F05E22" transform="translate(0,0)"/>
<path d="M0 0 C0.93413223 0.82416916 1.86826447 1.64833832 2.83070374 2.4974823 C6.66557384 5.78445335 10.67529966 8.79499571 14.72486496 11.81076431 C30.92230004 23.91331022 46.36978064 36.83406518 61.4375 50.3125 C62.39325896 51.16450391 62.39325896 51.16450391 63.36832619 52.03372002 C97.25328856 82.33434539 119.42591211 110.43436407 122.14453125 156.99609375 C122.1967596 157.83782237 122.24898796 158.679551 122.30279899 159.54678655 C124.54529609 197.88843735 118.45405236 237.26127981 115 275 C24.25 275 -66.5 275 -160 275 C-160 236.72 -160 198.44 -160 159 C-154.10710067 153.10710067 -148.08986379 147.6342408 -141.765625 142.2421875 C-140.5727242 141.22418383 -139.38002132 140.20594818 -138.1875 139.1875 C-137.58542725 138.67348633 -136.98335449 138.15947266 -136.36303711 137.62988281 C-131.6078756 133.55530579 -126.97030608 129.36982655 -122.35546875 125.13671875 C-119.63525404 122.66912763 -116.85226755 120.31264936 -114 118 C-110.23396131 119.56282982 -107.86360849 121.9063475 -105.015625 124.7890625 C-104.55516785 125.25234955 -104.09471069 125.7156366 -103.62030029 126.19296265 C-102.15874922 127.66565898 -100.70432832 129.14517403 -99.25 130.625 C-98.25697389 131.62806322 -97.26348911 132.63067257 -96.26953125 133.6328125 C-93.84102059 136.08330835 -91.41885325 138.5399667 -89 141 C-96.67351696 148.70389763 -104.71192867 155.90146698 -113.19921875 162.69921875 C-114.12347656 163.45847656 -115.04773438 164.21773437 -116 165 C-116.65615799 165.39387909 -117.31231598 165.78775818 -117.98835754 166.193573 C-121.7934346 168.79180888 -123.72229569 170.75382393 -124.7429657 175.33399963 C-125.02334646 179.57346665 -125.0586658 183.75076777 -125 187.99609375 C-125.00812353 189.37897273 -125.01982954 190.76183541 -125.03515625 192.14465332 C-125.06675048 197.24218444 -125.0292798 202.33995506 -125 207.4375 C-125 218.843125 -125 230.24875 -125 242 C-92.66 242 -60.32 242 -27 242 C-20.05166106 199.78655061 -20.05166106 199.78655061 -34.91748047 161.81445312 C-43.46884987 151.29545598 -53.14326174 141.83882477 -63.0625 132.625 C-63.89869118 131.84787407 -64.73488235 131.07074814 -65.59641266 130.27007294 C-76.13246634 120.53066774 -86.93217665 111.1291592 -98 102 C-96.30145963 98.37916872 -94.28895218 96.05744646 -91.4296875 93.234375 C-90.53378906 92.34492188 -89.63789063 91.45546875 -88.71484375 90.5390625 C-87.77769531 89.61867188 -86.84054688 88.69828125 -85.875 87.75 C-84.92011363 86.80515144 -83.96568141 85.85984367 -83.01171875 84.9140625 C-80.67890913 82.60481662 -78.34155914 80.30036797 -76 78 C-71.6651656 80.0366288 -68.2622456 82.82329198 -64.56933594 85.83886719 C-63.82769573 86.44402287 -63.08605553 87.04917854 -62.32194138 87.67267227 C-52.53250951 95.73497875 -43.069117 104.15050754 -33.75 112.75 C-32.85288803 113.57627396 -31.95577606 114.40254791 -31.03147888 115.25386047 C-9.76983606 135.0205281 7.49476893 153.11746713 9.20168304 183.19022369 C9.45194013 190.07006878 9.21265967 196.88433002 8.75 203.75 C8.6852095 204.71344833 8.62041901 205.67689667 8.55366516 206.66954041 C7.69038727 218.57212575 6.11707092 230.2592561 4 242 C11.59 242 19.18 242 27 242 C27.05011614 230.27282284 27.06631558 218.54693027 27.02334595 206.81971741 C27.00473624 201.37382909 27.00080067 195.92876504 27.03076172 190.48291016 C27.05914847 185.22398535 27.04851721 179.96643515 27.01119995 174.70758057 C27.00377196 172.70461305 27.0102383 170.70154274 27.03103638 168.69866943 C27.50375854 157.98699908 27.50375854 157.98699908 24.27429199 148.08337402 C22.28693152 146.0882321 20.31369556 144.58890357 18 143 C16.8084303 141.70880512 15.64707519 140.38843706 14.53125 139.03125 C10.73857952 134.62796818 6.64426794 130.57013076 2.5 126.5 C-2.27880802 121.8066805 -6.87155094 117.06008022 -11.24023438 111.98242188 C-14.33394006 108.49728173 -17.67436478 105.26192574 -21 102 C-25.61825953 97.47021287 -30.0319728 92.87040516 -34.25390625 87.96875 C-37.18634601 84.66237497 -40.34654379 81.59362907 -43.5 78.5 C-56.21853111 65.86282743 -56.21853111 65.86282743 -58 63 C-58 59 -58 59 -56.07226562 56.61816406 C-55.19248047 55.75932617 -54.31269531 54.90048828 -53.40625 54.015625 C-52.94013306 53.55516785 -52.47401611 53.09471069 -51.99377441 52.62030029 C-50.5049818 51.15387258 -49.00288278 49.70197017 -47.5 48.25 C-46.48737217 47.25743702 -45.47564185 46.2639575 -44.46484375 45.26953125 C-41.98688309 42.83563843 -39.49679722 40.41458252 -37 38 C-34.21192526 39.27259639 -32.16713732 40.58390959 -30.01171875 42.7578125 C-29.19864258 43.57378906 -29.19864258 43.57378906 -28.36914062 44.40625 C-27.81419922 44.9734375 -27.25925781 45.540625 -26.6875 46.125 C-26.14416016 46.66898438 -25.60082031 47.21296875 -25.04101562 47.7734375 C-22.22081797 50.62360183 -19.52360526 53.53185904 -16.92578125 56.5859375 C-11.46898245 62.88743026 -5.42373508 68.64298438 0.5 74.5 C13.81604763 87.66606801 13.81604763 87.66606801 17.46875 91.96875 C22.89761801 98.35525683 29.04561369 104.11010163 35 110 C49.71656942 124.55718419 49.71656942 124.55718419 54.66796875 130.44921875 C55.96190335 132.03839682 55.96190335 132.03839682 57.56070423 133.32049274 C59.41209874 135.48087602 59.3706756 136.6045723 59.36076355 139.42289734 C59.36694954 140.77955505 59.36694954 140.77955505 59.3732605 142.16362 C59.36247467 143.15336319 59.35168884 144.14310638 59.34057617 145.1628418 C59.34101425 146.20691193 59.34145233 147.25098206 59.34190369 148.32669067 C59.33981043 151.78438898 59.31645355 155.24160494 59.29296875 158.69921875 C59.28737472 161.09389481 59.28310371 163.48857429 59.28010559 165.883255 C59.26864169 172.19130911 59.23916101 178.49915655 59.20599365 184.80712891 C59.17532618 191.24183354 59.16160735 197.6765715 59.14648438 204.11132812 C59.11429293 216.7409909 59.06151218 229.37044595 59 242 C66.59 242 74.18 242 82 242 C82.73665865 227.92186926 83.29820353 213.8635188 83.57771111 199.76875114 C83.71408037 193.21841098 83.9178698 186.68681345 84.29394531 180.14550781 C86.6708193 146.4776525 86.6708193 146.4776525 72.58691406 117.12207031 C64.90925317 108.70789571 56.28238377 101.35963096 47.23733521 94.46218872 C42.90541464 91.08597648 39.51463762 87.19357143 36 83 C34.50651114 81.43554524 32.9959758 79.88698893 31.4609375 78.36328125 C30.64318848 77.54883545 29.82543945 76.73438965 28.98291016 75.89526367 C28.1222998 75.04295166 27.26168945 74.19063965 26.375 73.3125 C25.46927246 72.41055908 24.56354492 71.50861816 23.63037109 70.5793457 C20.75600431 67.71711436 17.8785306 64.85804198 15 62 C11.20524662 58.23225667 7.41418619 54.46084455 3.625 50.6875 C2.76438965 49.83518799 1.9037793 48.98287598 1.01708984 48.10473633 C-3.3429205 43.76233785 -7.55179261 39.35866142 -11.54811096 34.67797852 C-13.57038006 32.34079984 -15.73600879 30.16762212 -17.9375 28 C-19.09572266 26.8553125 -19.09572266 26.8553125 -20.27734375 25.6875 C-20.84582031 25.130625 -21.41429687 24.57375 -22 24 C-20.4608199 20.33247995 -18.24514548 18.01419427 -15.4296875 15.234375 C-14.08583984 13.90019531 -14.08583984 13.90019531 -12.71484375 12.5390625 C-11.77769531 11.61867188 -10.84054688 10.69828125 -9.875 9.75 C-8.92011363 8.80515144 -7.96568141 7.85984367 -7.01171875 6.9140625 C-4.67890913 4.60481662 -2.34155914 2.30036797 0 0 Z " fill="#FEFEFE" transform="translate(247,60)"/>
<path d="M0 0 C0 8.91 0 17.82 0 27 C2.31 27 4.62 27 7 27 C6.938125 25.783125 6.87625 24.56625 6.8125 23.3125 C6.82639071 19.38142889 7.42886038 17.10309954 10 14 C14.14040963 10.87969129 17.19463794 10.66900854 22.3125 10.8125 C24.519375 10.874375 26.72625 10.93625 29 11 C29 16.28 29 21.56 29 27 C32.3 26.67 35.6 26.34 39 26 C38.34 25.566875 37.68 25.13375 37 24.6875 C33.87046391 20.48218589 34.68515472 16.07250734 35 11 C49.0083682 7.36820084 49.0083682 7.36820084 55.4375 10.875 C58 13 58 13 59 15 C59.25785684 19.55547083 58.99851462 22.8780636 57 27 C59.64 27 62.28 27 65 27 C65 18.75 65 10.5 65 2 C70 0 70 0 73 0 C73.0744389 4.0384057 73.12873729 8.07654293 73.16479492 12.11547852 C73.17983432 13.48794517 73.20027133 14.86036414 73.22631836 16.23266602 C73.26291221 18.21088656 73.27816698 20.18946514 73.29296875 22.16796875 C73.3086792 23.35672607 73.32438965 24.5454834 73.34057617 25.77026367 C72.96480759 29.33373502 72.19595138 31.1905826 70 34 C66.40858866 35.19713711 63.47319892 35.13248902 59.6875 35.125 C58.39199219 35.12757813 57.09648437 35.13015625 55.76171875 35.1328125 C52 35 52 35 48.70703125 34.4296875 C45.91284808 33.77291701 45.91284808 33.77291701 43 35 C41.47216029 35.11100955 39.94012442 35.16873799 38.40844727 35.19287109 C37.48060928 35.20893402 36.5527713 35.22499695 35.59681702 35.24154663 C31.3688335 35.28604029 27.14100447 35.32703212 22.9128418 35.35009766 C20.68096511 35.3666867 18.44914218 35.39401509 16.2175293 35.43212891 C13.00020793 35.48678464 9.78412876 35.50875138 6.56640625 35.5234375 C5.56839493 35.54610687 4.57038361 35.56877625 3.54212952 35.59213257 C-3.28954622 35.57121879 -3.28954622 35.57121879 -6.63598633 32.88061523 C-8.25562879 29.46014603 -8.45963798 27.16517939 -8.390625 23.38671875 C-8.37773437 22.13955078 -8.36484375 20.89238281 -8.3515625 19.60742188 C-8.31804687 18.31384766 -8.28453125 17.02027344 -8.25 15.6875 C-8.23195312 14.37458984 -8.21390625 13.06167969 -8.1953125 11.70898438 C-8.14822786 8.47191512 -8.08247042 5.23632947 -8 2 C-5.09399739 0.74335022 -3.20395416 0 0 0 Z " fill="#FEF9F5" transform="translate(159,355)"/>
<path d="M0 0 C3.09375 0.061875 3.09375 0.061875 6.25 0.125 C6.25 5.405 6.25 10.685 6.25 16.125 C13.84 16.125 21.43 16.125 29.25 16.125 C29.25 12.165 29.25 8.205 29.25 4.125 C34.25 2.125 34.25 2.125 37.25 2.125 C37.25 6.745 37.25 11.365 37.25 16.125 C38.24 16.125 39.23 16.125 40.25 16.125 C40.25 12.165 40.25 8.205 40.25 4.125 C45.25 2.125 45.25 2.125 48.25 2.125 C48.25 6.745 48.25 11.365 48.25 16.125 C48.91 16.125 49.57 16.125 50.25 16.125 C50.25 11.835 50.25 7.545 50.25 3.125 C52.89 2.135 55.53 1.145 58.25 0.125 C58.35796306 3.3758878 58.43729295 6.62319179 58.5 9.875 C58.53351563 10.79539062 58.56703125 11.71578125 58.6015625 12.6640625 C58.69999608 19.45597928 58.69999608 19.45597928 56.484375 22.75 C54.09159813 24.22247808 53.01478514 24.56939896 50.25 24.375 C49.59 24.33890625 48.93 24.3028125 48.25 24.265625 C47.59 24.21921875 46.93 24.1728125 46.25 24.125 C44.93 24.125 43.61 24.125 42.25 24.125 C29.91666667 24.125 17.58333333 24.125 5.25 24.125 C4.96640625 24.89070313 4.6828125 25.65640625 4.390625 26.4453125 C2.90514225 29.93517951 1.24832291 31.80811412 -1.75 34.125 C-4.875 34.125 -4.875 34.125 -7.75 33.125 C-8.74 32.135 -9.73 31.145 -10.75 30.125 C-7.285 27.65 -7.285 27.65 -3.75 25.125 C-4.67232422 24.88716797 -4.67232422 24.88716797 -5.61328125 24.64453125 C-12.13064516 22.76312317 -12.13064516 22.76312317 -14.8125 20 C-16.13805923 15.9349517 -16.5531255 12.34884523 -15.75 8.125 C-12.12569358 1.33661654 -7.27163217 -0.14543264 0 0 Z " fill="#FEF7F4" transform="translate(301.75,365.875)"/>
<path d="M0 0 C0 5.28 0 10.56 0 16 C5.94 16 11.88 16 18 16 C18 11.71 18 7.42 18 3 C23.75 0 23.75 0 26 0 C26.08733513 3.08315385 26.14050127 6.16598827 26.1875 9.25 C26.21263672 10.12269531 26.23777344 10.99539063 26.26367188 11.89453125 C26.33759744 18.35069754 26.33759744 18.35069754 24.67578125 21.546875 C19.84533628 25.73551259 11.24172296 24.3049577 5.1496582 24.35009766 C3.5134457 24.36664636 1.87730516 24.39392261 0.24145508 24.43212891 C-2.12716866 24.48710756 -4.49410405 24.50880066 -6.86328125 24.5234375 C-7.58848465 24.54610687 -8.31368805 24.56877625 -9.06086731 24.59213257 C-12.94014555 24.57612295 -15.44608414 24.03332429 -18.44604492 21.65478516 C-21.45413273 18.52793812 -21.90952232 16.95906338 -22.3125 12.6875 C-21.93324687 8.21231308 -20.96949544 6.35019998 -18 3 C-12.07304348 -0.62874889 -6.85437984 -0.25386592 0 0 Z " fill="#FEF8F7" transform="translate(108,366)"/>
<path d="M0 0 C0 7.92 0 15.84 0 24 C-7.92 24 -15.84 24 -24 24 C-24 28.29 -24 32.58 -24 37 C-26.31 37.66 -28.62 38.32 -31 39 C-31.11644156 35.91698584 -31.18732432 32.83453877 -31.25 29.75 C-31.28351563 28.87730469 -31.31703125 28.00460937 -31.3515625 27.10546875 C-31.44989203 20.66488468 -31.44989203 20.66488468 -29.234375 17.390625 C-27 16 -27 16 -23 16 C-23.103125 14.80375 -23.20625 13.6075 -23.3125 12.375 C-23.31842325 9.03428727 -22.8592028 7.23086524 -20.75 4.625 C-14.40117881 -1.43523841 -8.52971917 -0.15795776 0 0 Z " fill="#FEF9F6" transform="translate(283,366)"/>
<path d="M0 0 C0.05834395 3.87493616 0.09371201 7.74975836 0.125 11.625 C0.15013672 13.26662109 0.15013672 13.26662109 0.17578125 14.94140625 C0.22579413 23.19353222 -0.37542423 28.62548079 -6 35 C-6.598125 34.690625 -7.19625 34.38125 -7.8125 34.0625 C-10.08956772 32.89790296 -10.08956772 32.89790296 -13 32 C-13.37125 32.515625 -13.7425 33.03125 -14.125 33.5625 C-16 35 -16 35 -19 34.6875 C-19.99 34.460625 -20.98 34.23375 -22 34 C-22.99 34 -23.98 34 -25 34 C-26.6875 32 -26.6875 32 -28 30 C-26.71034824 28.62437146 -25.37310707 27.29233607 -24 26 C-23.34 26 -22.68 26 -22 26 C-22 26.66 -22 27.32 -22 28 C-20.68 28 -19.36 28 -18 28 C-18 27.34 -18 26.68 -18 26 C-17.401875 26.33 -16.80375 26.66 -16.1875 27 C-13.94613529 28.20787988 -13.94613529 28.20787988 -11 28 C-9.22034298 24.91526116 -8.71563429 22.56067048 -8.5859375 19.015625 C-8.54726562 18.08105469 -8.50859375 17.14648438 -8.46875 16.18359375 C-8.4378125 15.21550781 -8.406875 14.24742187 -8.375 13.25 C-8.33632812 12.26644531 -8.29765625 11.28289062 -8.2578125 10.26953125 C-8.16371574 7.84653963 -8.07807672 5.42355204 -8 3 C-2.25 0 -2.25 0 0 0 Z " fill="#FDF4ED" transform="translate(147,366)"/>
<path d="M0 0 C0 11.22 0 22.44 0 34 C-2.64 34.66 -5.28 35.32 -8 36 C-8 24.78 -8 13.56 -8 2 C-3 0 -3 0 0 0 Z " fill="#FDF8F0" transform="translate(242,355)"/>
<path d="M0 0 C3 0.625 3 0.625 5.375 2.625 C7.45183617 6.45915909 7.74241339 9.35180667 7 13.625 C5.84367254 15.98793002 4.85016245 17.77483755 3 19.625 C0.1875 20.0625 0.1875 20.0625 -3 19.625 C-5.97079562 16.49784672 -7.25786428 13.81601754 -7.5 9.5625 C-6.81636812 4.17889896 -5.55273816 1.15682045 0 0 Z " fill="#F0652B" transform="translate(111,411.375)"/>
<path d="M0 0 C9 0 9 0 12 2 C12.34215288 5.14780649 12.49297319 7.19567533 10.8125 9.9375 C9.62881971 12.27248442 9.62881971 12.27248442 11.375 15.75 C11.91125 16.8225 12.4475 17.895 13 19 C12.01 19 11.02 19 10 19 C9.01 16.03 8.02 13.06 7 10 C5.35 10 3.7 10 2 10 C2 12.97 2 15.94 2 19 C1.34 19 0.68 19 0 19 C0 12.73 0 6.46 0 0 Z " fill="#F2D5D4" transform="translate(180,412)"/>
<path d="M0 0 C0.99 0 1.98 0 3 0 C4.32 3.96 5.64 7.92 7 12 C8.79068573 9.3139714 9.66055791 7.3373411 10.625 4.3125 C10.88539063 3.50425781 11.14578125 2.69601562 11.4140625 1.86328125 C11.60742188 1.24839844 11.80078125 0.63351562 12 0 C12.99 0 13.98 0 15 0 C15 6.27 15 12.54 15 19 C14.34 19 13.68 19 13 19 C12.67 15.37 12.34 11.74 12 8 C11.01 11.3 10.02 14.6 9 18 C8.01 18 7.02 18 6 18 C5.01 14.7 4.02 11.4 3 8 C2.67 11.63 2.34 15.26 2 19 C1.34 19 0.68 19 0 19 C0 12.73 0 6.46 0 0 Z " fill="#F3D7B6" transform="translate(146,412)"/>
<path d="M0 0 C1.32 0.33 2.64 0.66 4 1 C4.67321284 3.24805002 5.33834123 5.49852224 6 7.75 C6.556875 9.62945312 6.556875 9.62945312 7.125 11.546875 C8 15 8 15 8 19 C7.34 19 6.68 19 6 19 C5.67 17.02 5.34 15.04 5 13 C2.69 13 0.38 13 -2 13 C-2 14.65 -2 16.3 -2 18 C-2.99 18.33 -3.98 18.66 -5 19 C-3.83795007 12.45150687 -2.26616615 6.25461856 0 0 Z " fill="#F3D7CE" transform="translate(221,412)"/>
<path d="M0 0 C0.99 0 1.98 0 3 0 C3.83857688 2.60258324 4.67103344 5.20685647 5.5 7.8125 C5.73847656 8.55048828 5.97695313 9.28847656 6.22265625 10.04882812 C7.19940136 13.13255196 8 15.74495809 8 19 C7.01 18.67 6.02 18.34 5 18 C5 16.35 5 14.7 5 13 C2.69 13 0.38 13 -2 13 C-2.33 14.98 -2.66 16.96 -3 19 C-3.66 19 -4.32 19 -5 19 C-3.57142857 3.57142857 -3.57142857 3.57142857 0 0 Z " fill="#F2D1C7" transform="translate(318,412)"/>
<path d="M0 0 C3.63 0 7.26 0 11 0 C11 0.66 11 1.32 11 2 C8.36 2 5.72 2 3 2 C3 3.98 3 5.96 3 8 C4.65 8 6.3 8 8 8 C8 8.66 8 9.32 8 10 C6.35 10 4.7 10 3 10 C3 12.31 3 14.62 3 17 C5.64 17 8.28 17 11 17 C11 17.66 11 18.32 11 19 C7.37 19 3.74 19 0 19 C0 12.73 0 6.46 0 0 Z " fill="#F2B9B0" transform="translate(263,412)"/>
<path d="M0 0 C3 0.625 3 0.625 5.375 2.625 C7.45183617 6.45915909 7.74241339 9.35180667 7 13.625 C5.84367254 15.98793002 4.85016245 17.77483755 3 19.625 C0.1875 20.0625 0.1875 20.0625 -3 19.625 C-5.97079562 16.49784672 -7.25786428 13.81601754 -7.5 9.5625 C-6.81636812 4.17889896 -5.55273816 1.15682045 0 0 Z M-3 2.625 C-5.33479983 6.27312473 -5.38018947 9.36687788 -5 13.625 C-3.64114884 16.02583438 -3.64114884 16.02583438 -2 17.625 C0.43717258 17.35465366 0.43717258 17.35465366 3 16.625 C4.99825961 13.62761059 5.27550398 12.99152492 5.25 9.625 C5.25515625 8.944375 5.2603125 8.26375 5.265625 7.5625 C5.09917603 5.30083993 5.09917603 5.30083993 3 2.625 C-0.08365871 2.3747843 -0.08365871 2.3747843 -3 2.625 Z " fill="#F3D9D1" transform="translate(111,411.375)"/>
<path d="M0 0 C0.66 0 1.32 0 2 0 C2.06058594 1.07121094 2.12117188 2.14242188 2.18359375 3.24609375 C2.26798537 4.64324391 2.35263406 6.04037857 2.4375 7.4375 C2.47681641 8.14455078 2.51613281 8.85160156 2.55664062 9.58007812 C2.47624438 13.08690419 2.47624438 13.08690419 4 16 C6.5 16.16666667 6.5 16.16666667 9 16 C10.99616554 14.00383446 10.40983427 10.18298037 10.5625 7.4375 C10.60568359 6.72658203 10.64886719 6.01566406 10.69335938 5.28320312 C10.79971777 3.52238088 10.90038846 1.7612168 11 0 C11.66 0 12.32 0 13 0 C13.08117951 2.41734542 13.14056926 4.83194949 13.1875 7.25 C13.22520508 8.27287109 13.22520508 8.27287109 13.26367188 9.31640625 C13.30924775 12.4459494 13.1784459 14.66143798 11.70703125 17.453125 C10 19 10 19 6.5 19.5 C3 19 3 19 1.29296875 17.453125 C-0.48815329 14.07383606 -0.32448904 10.96626667 -0.1875 7.25 C-0.17396484 6.55261719 -0.16042969 5.85523438 -0.14648438 5.13671875 C-0.1112945 3.42414459 -0.05749155 1.71197059 0 0 Z " fill="#F3DFD1" transform="translate(125,412)"/>
<path d="M0 0 C3.3 0 6.6 0 10 0 C10 0.66 10 1.32 10 2 C7.36 2 4.72 2 2 2 C2 3.98 2 5.96 2 8 C3.98 8 5.96 8 8 8 C8 8.66 8 9.32 8 10 C6.02 10 4.04 10 2 10 C2 12.31 2 14.62 2 17 C4.97 17 7.94 17 11 17 C11 17.66 11 18.32 11 19 C7.37 19 3.74 19 0 19 C0 12.73 0 6.46 0 0 Z " fill="#F3E4D2" transform="translate(200,412)"/>
<path d="M0 0 C3.3 0 6.6 0 10 0 C10 0.66 10 1.32 10 2 C7.36 2 4.72 2 2 2 C2 3.98 2 5.96 2 8 C3.98 8 5.96 8 8 8 C8 8.66 8 9.32 8 10 C6.02 10 4.04 10 2 10 C2 12.31 2 14.62 2 17 C4.97 17 7.94 17 11 17 C11 17.66 11 18.32 11 19 C7.37 19 3.74 19 0 19 C0 12.73 0 6.46 0 0 Z " fill="#F3DBD9" transform="translate(348,412)"/>
<path d="M0 0 C1.8125 1.375 1.8125 1.375 3 3 C3 3.66 3 4.32 3 5 C2.34 5 1.68 5 1 5 C0.67 4.34 0.34 3.68 0 3 C-2.52733235 2.34444881 -2.52733235 2.34444881 -5 2 C-4.96906827 4.41585574 -4.96906827 4.41585574 -4 7 C-1.06644453 8.80029482 -1.06644453 8.80029482 2 10 C3 11 3 11 3.1875 13.9375 C3 17 3 17 1 19 C-1.9375 19.4375 -1.9375 19.4375 -5 19 C-6.875 16.5 -6.875 16.5 -8 14 C-7.13375 14.495 -7.13375 14.495 -6.25 15 C-3.80116138 16.27075898 -3.80116138 16.27075898 0 16 C-0.03093173 13.58414426 -0.03093173 13.58414426 -1 11 C-1.99 10.505 -2.98 10.01 -4 9.5 C-7 8 -7 8 -8.0625 5.5 C-8 3 -8 3 -6.875 1.1875 C-4.37186206 -0.39782069 -2.91343893 -0.43701584 0 0 Z " fill="#F2D1C9" transform="translate(288,412)"/>
<path d="M0 0 C1.671549 0.30791692 3.33805547 0.64386903 5 1 C5.70125 0.79375 6.4025 0.5875 7.125 0.375 C8.053125 0.189375 8.053125 0.189375 9 0 C10.75 1.4375 10.75 1.4375 12 3 C11.25 4.9375 11.25 4.9375 10 7 C7.17805079 8.12877968 5.12179761 8 2 8 C-0.25 7 -0.25 7 -2 6 C-2 2 -2 2 0 0 Z " fill="#FDF4EF" transform="translate(95,356)"/>
<path d="M0 0 C2.00349261 0.31165441 4.00326516 0.64763503 6 1 C7.32 1 8.64 1 10 1 C10.66 2.32 11.32 3.64 12 5 C10.8125 6.5625 10.8125 6.5625 9 8 C6.5625 7.625 6.5625 7.625 4 7 C3.29875 7.20625 2.5975 7.4125 1.875 7.625 C1.25625 7.74875 0.6375 7.8725 0 8 C-1.75 6.5625 -1.75 6.5625 -3 5 C-1.125 1.125 -1.125 1.125 0 0 Z " fill="#FDF4F0" transform="translate(174,355)"/>
<path d="M0 0 C3 0.25 3 0.25 5 2.25 C4.67 3.24 4.34 4.23 4 5.25 C3.34 4.59 2.68 3.93 2 3.25 C0.68 3.25 -0.64 3.25 -2 3.25 C-1.96044102 5.17309422 -1.96044102 5.17309422 -1 7.25 C1.95009373 8.97512465 1.95009373 8.97512465 5 10.25 C6 11.25 6 11.25 6.25 14.1875 C6.1675 15.198125 6.085 16.20875 6 17.25 C2.76746204 19.40502531 1.74849077 19.71856135 -2 19.25 C-3.8125 17.875 -3.8125 17.875 -5 16.25 C-5 15.59 -5 14.93 -5 14.25 C-4.34 14.25 -3.68 14.25 -3 14.25 C-2.67 14.91 -2.34 15.57 -2 16.25 C-0.35 16.25 1.3 16.25 3 16.25 C3 14.93 3 13.61 3 12.25 C1.23951472 10.85347798 1.23951472 10.85347798 -1 9.8125 C-3.2109375 8.546875 -3.2109375 8.546875 -5 7.25 C-5.625 4.5625 -5.625 4.5625 -5 2.25 C-3 0.25 -3 0.25 0 0 Z " fill="#F3DFD6" transform="translate(92,411.75)"/>
<path d="M0 0 C0.99 0 1.98 0 3 0 C3 6.27 3 12.54 3 19 C2.34 19 1.68 19 1 19 C0.67 15.37 0.34 11.74 0 8 C-0.99 11.3 -1.98 14.6 -3 18 C-3.66 17.01 -4.32 16.02 -5 15 C-4.32644839 12.32043601 -3.57760397 9.88886074 -2.625 7.3125 C-2.3775 6.61060547 -2.13 5.90871094 -1.875 5.18554688 C-1.26203025 3.45272855 -0.63256672 1.72576088 0 0 Z " fill="#F2CFD1" transform="translate(158,412)"/>
<path d="M0 0 C3.96 0 7.92 0 12 0 C12 0.66 12 1.32 12 2 C10.35 2 8.7 2 7 2 C7 7.61 7 13.22 7 19 C6.34 19 5.68 19 5 19 C5 13.39 5 7.78 5 2 C3.35 2 1.7 2 0 2 C0 1.34 0 0.68 0 0 Z " fill="#F2D0D6" transform="translate(329,412)"/>
<path d="M0 0 C3.96 0 7.92 0 12 0 C12 0.66 12 1.32 12 2 C10.35 2 8.7 2 7 2 C7 7.61 7 13.22 7 19 C6.34 19 5.68 19 5 19 C5 13.39 5 7.78 5 2 C3.35 2 1.7 2 0 2 C0 1.34 0 0.68 0 0 Z " fill="#F3DFDC" transform="translate(297,412)"/>
<path d="M0 0 C0.66 0 1.32 0 2 0 C2 5.61 2 11.22 2 17 C4.64 17 7.28 17 10 17 C10 17.66 10 18.32 10 19 C6.7 19 3.4 19 0 19 C0 12.73 0 6.46 0 0 Z " fill="#F2D7DE" transform="translate(236,412)"/>
<path d="M0 0 C2.33294775 -0.04241723 4.66702567 -0.04092937 7 0 C8 1 8 1 8.0625 3.5625 C8.041875 4.366875 8.02125 5.17125 8 6 C5.29120665 7.35439668 2.99066732 7.06501451 0 7 C0 4.69 0 2.38 0 0 Z " fill="#F06F35" transform="translate(182,414)"/>
<path d="M0 0 C0.78375 0.04125 1.5675 0.0825 2.375 0.125 C2.375 2.765 2.375 5.405 2.375 8.125 C0.37545254 8.16754356 -1.62541636 8.16580783 -3.625 8.125 C-4.625 7.125 -4.625 7.125 -4.8125 4.6875 C-4.54653904 1.05270021 -3.63803315 0.17323967 0 0 Z " fill="#F16733" transform="translate(272.625,373.875)"/>
<path d="M0 0 C0.33 0 0.66 0 1 0 C1 2.64 1 5.28 1 8 C2.98 8 4.96 8 7 8 C7 8.33 7 8.66 7 9 C5.35 9 3.7 9 2 9 C2 11.31 2 13.62 2 16 C4.64 16 7.28 16 10 16 C10 16.66 10 17.32 10 18 C6.7 18 3.4 18 0 18 C0 12.06 0 6.12 0 0 Z " fill="#F4E3D1" transform="translate(264,413)"/>
<path d="M0 0 C1.32 0 2.64 0 4 0 C4 2.64 4 5.28 4 8 C2.33388095 8.042721 0.66617115 8.04063832 -1 8 C-2 7 -2 7 -2.1875 4.5625 C-2 2 -2 2 0 0 Z " fill="#F16A37" transform="translate(296,374)"/>
<path d="M0 0 C1.32 0 2.64 0 4 0 C4 2.64 4 5.28 4 8 C2.33388095 8.042721 0.66617115 8.04063832 -1 8 C-2 7 -2 7 -2.1875 4.5625 C-2 2 -2 2 0 0 Z " fill="#F06127" transform="translate(176,374)"/>
<path d="M0 0 C0.66 0 1.32 0 2 0 C2.01417969 1.03640625 2.02835937 2.0728125 2.04296875 3.140625 C2.08988093 4.51046057 2.13812827 5.88025087 2.1875 7.25 C2.19330078 7.93191406 2.19910156 8.61382812 2.20507812 9.31640625 C2.3756508 13.2206252 2.70648831 14.7141295 5.55078125 17.484375 C6.35902344 17.98453125 7.16726562 18.4846875 8 19 C5.6875 19.25 5.6875 19.25 3 19 C0.28931466 16.49389469 0.00413739 15.05185532 -0.29296875 11.328125 C-0.27316751 9.96843965 -0.23759202 8.6089066 -0.1875 7.25 C-0.17396484 6.55261719 -0.16042969 5.85523438 -0.14648438 5.13671875 C-0.1112945 3.42414459 -0.05749155 1.71197059 0 0 Z " fill="#F2CCD4" transform="translate(125,412)"/>
<path d="M0 0 C0 2.64 0 5.28 0 8 C-1.65 8 -3.3 8 -5 8 C-5.6875 5.6875 -5.6875 5.6875 -6 3 C-4.0819994 0.21889913 -3.45555657 0 0 0 Z " fill="#F26D2D" transform="translate(100,374)"/>
<path d="M0 0 C3.3 0 6.6 0 10 0 C10 0.66 10 1.32 10 2 C7.36 2 4.72 2 2 2 C2 3.98 2 5.96 2 8 C3.98 8 5.96 8 8 8 C7.67 8.66 7.34 9.32 7 10 C4.69 9.67 2.38 9.34 0 9 C0 6.03 0 3.06 0 0 Z " fill="#F3DDC7" transform="translate(200,412)"/>
<path d="M0 0 C3 0.25 3 0.25 5 2.25 C4.67 3.24 4.34 4.23 4 5.25 C3.34 4.59 2.68 3.93 2 3.25 C0.68 3.25 -0.64 3.25 -2 3.25 C-1.67 4.9 -1.34 6.55 -1 8.25 C-1.99 8.25 -2.98 8.25 -4 8.25 C-5 7.25 -5 7.25 -5.1875 4.8125 C-4.90287463 0.92261994 -3.80737989 0.31728166 0 0 Z " fill="#F2D5D0" transform="translate(92,411.75)"/>
<path d="M0 0 C6.75 -0.125 6.75 -0.125 9 1 C8.67 2.65 8.34 4.3 8 6 C4.65750371 5.40312566 2.53563658 4.26396123 0 2 C0 1.34 0 0.68 0 0 Z " fill="#F1703C" transform="translate(201,372)"/>
<path d="M0 0 C0.33 0 0.66 0 1 0 C1.125 2.375 1.125 2.375 1 5 C-1 7 -1 7 -3.9375 7.4375 C-7 7 -7 7 -8.875 4.5 C-9.24625 3.675 -9.6175 2.85 -10 2 C-9.195625 2.495 -9.195625 2.495 -8.375 3 C-5.4608939 4.22699204 -3.13132292 4.14233286 0 4 C0 2.68 0 1.36 0 0 Z " fill="#F3DED5" transform="translate(290,424)"/>
<path d="M0 0 C0.99 0 1.98 0 3 0 C2.84660156 0.50015625 2.69320312 1.0003125 2.53515625 1.515625 C1.80542604 4.90327766 1.63643523 8.29961519 1.4375 11.75 C1.39431641 12.44738281 1.35113281 13.14476562 1.30664062 13.86328125 C1.20110404 15.57531922 1.1001009 17.28763561 1 19 C0.67 19 0.34 19 0 19 C0 12.73 0 6.46 0 0 Z " fill="#F3ECED" transform="translate(146,412)"/>
<path d="M0 0 C2.76223278 2.76223278 2.57856291 5.20706617 3 9 C1.35 9 -0.3 9 -2 9 C-1.34 6.03 -0.68 3.06 0 0 Z " fill="#F06E35" transform="translate(222,414)"/>
<path d="M0 0 C3.06630664 0.8974556 4.73038808 1.73038808 7 4 C3.7 4.33 0.4 4.66 -3 5 C-3 4.01 -3 3.02 -3 2 C-2.01 1.34 -1.02 0.68 0 0 Z " fill="#F27441" transform="translate(98,362)"/>
<path d="M0 0 C2.29013653 3.4352048 2.17842973 4.985331 2 9 C0.68 9 -0.64 9 -2 9 C-1.34 6.03 -0.68 3.06 0 0 Z " fill="#F06B37" transform="translate(319,414)"/>
<path d="M0 0 C0.99 0 1.98 0 3 0 C4.35439668 2.70879335 4.06501451 5.00933268 4 8 C3.01 6.68 2.02 5.36 1 4 C0.34 4.99 -0.32 5.98 -1 7 C-1.04254356 5.00045254 -1.04080783 2.99958364 -1 1 C-0.67 0.67 -0.34 0.34 0 0 Z " fill="#F3DED2" transform="translate(318,412)"/>
<path d="M0 0 C2.29633824 3.44450737 2.54016485 5.93812283 3 10 C2.01 9.67 1.02 9.34 0 9 C0 6.03 0 3.06 0 0 Z " fill="#F3D4BA" transform="translate(323,421)"/>
<path d="M0 0 C0.33 0 0.66 0 1 0 C1 2.97 1 5.94 1 9 C0.01 9.33 -0.98 9.66 -2 10 C-1.34 6.7 -0.68 3.4 0 0 Z " fill="#F2C8C7" transform="translate(218,421)"/>
<path d="M0 0 C1.42944945 2.35438733 2.08661261 3.48032433 1.625 6.25 C1.41875 6.8275 1.2125 7.405 1 8 C-0.98 8 -2.96 8 -5 8 C-5 7.67 -5 7.34 -5 7 C-3.35 7 -1.7 7 0 7 C-0.185625 6.401875 -0.37125 5.80375 -0.5625 5.1875 C-1 3 -1 3 0 0 Z " fill="#F3D2BF" transform="translate(225,416)"/>
</svg>
